<svg xmlns="http://www.w3.org/2000/svg" xmlns:xlink="http://www.w3.org/1999/xlink" width="500" zoomAndPan="magnify" viewBox="0 0 375 374.999991" height="500" preserveAspectRatio="xMidYMid meet" version="1.0"><defs><g/><clipPath id="2d1ee354ba"><path d="M 41.792969 1.078125 L 176.195312 1.078125 L 176.195312 135.480469 L 41.792969 135.480469 Z M 41.792969 1.078125 " clip-rule="nonzero"/></clipPath><clipPath id="df401ac353"><path d="M 0.792969 0.078125 L 135.058594 0.078125 L 135.058594 134.480469 L 0.792969 134.480469 Z M 0.792969 0.078125 " clip-rule="nonzero"/></clipPath><clipPath id="a624383181"><rect x="0" width="136" y="0" height="135"/></clipPath><clipPath id="40fa2a4068"><rect x="0" width="231" y="0" height="210"/></clipPath></defs><g transform="matrix(1, 0, 0, 1, 72, 82)"><g clip-path="url(#40fa2a4068)"><g fill="#ffffff" fill-opacity="1"><g transform="translate(0.728051, 192.218622)"><g><path d="M 40.390625 -28.6875 C 40.578125 -26.945312 40.671875 -24.609375 40.671875 -21.671875 L 40.671875 0 L 30.703125 0 L 30.703125 -20.296875 C 30.703125 -22.566406 30.65625 -24.351562 30.5625 -25.65625 C 30.226562 -30.175781 27.769531 -32.4375 23.1875 -32.4375 C 20.59375 -32.394531 18.5 -31.164062 16.90625 -28.75 C 15.3125 -26.34375 14.515625 -22.613281 14.515625 -17.5625 L 14.515625 0 L 4.546875 0 L 4.546875 -53.46875 L 14.515625 -53.46875 L 14.515625 -32.21875 L 17.484375 -36.78125 C 19.984375 -38.5625 23.066406 -39.453125 26.734375 -39.453125 C 30.773438 -39.453125 33.960938 -38.507812 36.296875 -36.625 C 38.640625 -34.75 40.003906 -32.101562 40.390625 -28.6875 Z M 40.390625 -28.6875 "/></g></g></g><g fill="#ffffff" fill-opacity="1"><g transform="translate(40.969709, 192.218622)"><g><path d="M 7.21875 -33.84375 C 10.738281 -37.582031 15.628906 -39.453125 21.890625 -39.453125 C 28.148438 -39.453125 33.035156 -37.582031 36.546875 -33.84375 C 40.066406 -30.113281 41.828125 -25.238281 41.828125 -19.21875 C 41.828125 -13.25 40.066406 -8.382812 36.546875 -4.625 C 33.035156 -0.863281 28.148438 1.015625 21.890625 1.015625 C 15.628906 1.015625 10.738281 -0.863281 7.21875 -4.625 C 3.707031 -8.382812 1.953125 -13.25 1.953125 -19.21875 C 1.953125 -25.238281 3.707031 -30.113281 7.21875 -33.84375 Z M 14.84375 -9.5 C 16.550781 -7.164062 18.898438 -6 21.890625 -6 C 24.878906 -6 27.226562 -7.164062 28.9375 -9.5 C 30.644531 -11.832031 31.5 -15.070312 31.5 -19.21875 C 31.5 -23.363281 30.644531 -26.601562 28.9375 -28.9375 C 27.226562 -31.269531 24.878906 -32.4375 21.890625 -32.4375 C 18.898438 -32.4375 16.550781 -31.269531 14.84375 -28.9375 C 13.132812 -26.601562 12.28125 -23.363281 12.28125 -19.21875 C 12.28125 -15.070312 13.132812 -11.832031 14.84375 -9.5 Z M 14.84375 -9.5 "/></g></g></g><g fill="#ffffff" fill-opacity="1"><g transform="translate(80.127637, 192.218622)"><g><path d="M 14.234375 -53.109375 L 14.234375 -12.578125 C 14.234375 -10.890625 14.257812 -9.707031 14.3125 -9.03125 C 14.40625 -8.019531 14.765625 -7.34375 15.390625 -7 C 16.015625 -6.664062 17.144531 -6.546875 18.78125 -6.640625 L 18.78125 0.21875 C 17.050781 0.40625 15.003906 0.5 12.640625 0.5 C 7.347656 0.5 4.601562 -1.757812 4.40625 -6.28125 C 4.3125 -7.4375 4.265625 -9.460938 4.265625 -12.359375 L 4.265625 -53.109375 Z M 14.234375 -53.109375 "/></g></g></g><g fill="#ffffff" fill-opacity="1"><g transform="translate(95.660333, 192.218622)"><g><path d="M 61.625 -29.90625 C 61.863281 -28.269531 61.984375 -25.9375 61.984375 -22.90625 L 61.984375 0 L 52.015625 0 L 52.015625 -20.015625 C 52.015625 -22.472656 51.921875 -24.566406 51.734375 -26.296875 C 51.203125 -30.390625 49.035156 -32.4375 45.234375 -32.4375 C 40.554688 -32.4375 38.21875 -28.195312 38.21875 -19.71875 L 38.21875 0 L 28.328125 0 L 28.328125 -20.015625 C 28.328125 -22.472656 28.226562 -24.566406 28.03125 -26.296875 C 27.5 -30.390625 25.304688 -32.4375 21.453125 -32.4375 C 16.828125 -32.4375 14.515625 -28.195312 14.515625 -19.71875 L 14.515625 0 L 4.546875 0 L 4.546875 -38.4375 L 14.515625 -38.4375 L 14.515625 -32.578125 L 17.34375 -37.203125 C 19.457031 -38.703125 22.175781 -39.453125 25.5 -39.453125 C 28.539062 -39.453125 31.054688 -38.785156 33.046875 -37.453125 C 35.046875 -36.128906 36.457031 -34.363281 37.28125 -32.15625 L 41.03125 -37.203125 C 43.15625 -38.703125 45.90625 -39.453125 49.28125 -39.453125 C 52.789062 -39.453125 55.601562 -38.5625 57.71875 -36.78125 C 59.84375 -35 61.144531 -32.707031 61.625 -29.90625 Z M 61.625 -29.90625 "/></g></g></g><g fill="#ffffff" fill-opacity="1"><g transform="translate(157.215266, 192.218622)"><g><path d="M 39.453125 -20.015625 C 39.453125 -18.617188 39.398438 -17.488281 39.296875 -16.625 L 12 -16.625 C 12.570312 -9.539062 15.53125 -6 20.875 -6 C 23.039062 -6 24.832031 -6.578125 26.25 -7.734375 C 27.675781 -8.890625 28.5625 -10.476562 28.90625 -12.5 L 38.875 -12.5 C 37.90625 -8.113281 35.796875 -4.765625 32.546875 -2.453125 C 29.296875 -0.140625 25.332031 1.015625 20.65625 1.015625 C 15.125 1.015625 10.625 -0.703125 7.15625 -4.140625 C 3.6875 -7.585938 1.953125 -12.566406 1.953125 -19.078125 C 1.953125 -25.046875 3.742188 -29.929688 7.328125 -33.734375 C 10.921875 -37.546875 15.628906 -39.453125 21.453125 -39.453125 C 27.085938 -39.453125 31.492188 -37.597656 34.671875 -33.890625 C 37.859375 -30.179688 39.453125 -25.554688 39.453125 -20.015625 Z M 21.03125 -32.4375 C 16.0625 -32.4375 13.144531 -29.332031 12.28125 -23.125 L 29.1875 -23.125 C 28.507812 -29.332031 25.789062 -32.4375 21.03125 -32.4375 Z M 21.03125 -32.4375 "/></g></g></g><g fill="#ffffff" fill-opacity="1"><g transform="translate(194.350239, 192.218622)"><g><path d="M 18.28125 -39.453125 C 22.707031 -39.453125 26.242188 -38.34375 28.890625 -36.125 C 31.546875 -33.90625 33.09375 -30.96875 33.53125 -27.3125 L 23.546875 -27.3125 C 22.878906 -31.019531 20.90625 -32.875 17.625 -32.875 C 16.1875 -32.875 15.066406 -32.5 14.265625 -31.75 C 13.472656 -31.007812 13.078125 -30.007812 13.078125 -28.75 C 13.078125 -27.3125 13.726562 -26.15625 15.03125 -25.28125 C 16.332031 -24.414062 18.59375 -23.578125 21.8125 -22.765625 C 26.007812 -21.703125 29.140625 -20.226562 31.203125 -18.34375 C 33.273438 -16.46875 34.3125 -13.84375 34.3125 -10.46875 C 34.3125 -6.757812 32.832031 -3.914062 29.875 -1.9375 C 26.914062 0.0273438 23.125 1.015625 18.5 1.015625 C 13.675781 1.015625 9.769531 -0.0390625 6.78125 -2.15625 C 3.800781 -4.28125 2.046875 -7.460938 1.515625 -11.703125 L 11.484375 -11.703125 C 11.867188 -9.679688 12.695312 -8.148438 13.96875 -7.109375 C 15.25 -6.078125 16.804688 -5.5625 18.640625 -5.5625 C 20.328125 -5.5625 21.6875 -5.921875 22.71875 -6.640625 C 23.757812 -7.367188 24.28125 -8.40625 24.28125 -9.75 C 24.28125 -11.25 23.578125 -12.46875 22.171875 -13.40625 C 20.773438 -14.34375 18.414062 -15.222656 15.09375 -16.046875 C 11.195312 -17.003906 8.210938 -18.382812 6.140625 -20.1875 C 4.066406 -22 3.03125 -24.46875 3.03125 -27.59375 C 3.03125 -31.257812 4.414062 -34.148438 7.1875 -36.265625 C 9.957031 -38.390625 13.65625 -39.453125 18.28125 -39.453125 Z M 18.28125 -39.453125 "/></g></g></g><g clip-path="url(#2d1ee354ba)"><g transform="matrix(1, 0, 0, 1, 41, 1)"><g clip-path="url(#a624383181)"><path fill="#ffffff" d="M 72.226562 118.359375 C 68.765625 114.898438 68.765625 109.289062 72.226562 105.832031 C 75.6875 102.371094 81.296875 102.371094 84.753906 105.832031 C 88.214844 109.289062 88.214844 114.898438 84.753906 118.359375 C 81.296875 121.820312 75.6875 121.820312 72.226562 118.359375 " fill-opacity="1" fill-rule="nonzero"/><g clip-path="url(#df401ac353)"><path fill="#ffffff" d="M 67.925781 0.0742188 C 105.003906 0.0742188 135.0625 30.132812 135.0625 67.210938 C 135.0625 68.84375 135.003906 70.457031 134.886719 72.058594 C 118.507812 56.328125 93.050781 55.574219 75.808594 69.816406 L 55.570312 49.578125 C 58.5 44.613281 57.832031 38.109375 53.570312 33.84375 C 48.511719 28.789062 40.316406 28.789062 35.257812 33.84375 C 30.203125 38.902344 30.203125 47.097656 35.257812 52.152344 C 39.523438 56.417969 46.027344 57.085938 50.992188 54.15625 L 71.125 74.289062 C 55.703125 91.296875 55.792969 117.355469 71.382812 134.261719 C 70.238281 134.320312 69.085938 134.351562 67.925781 134.351562 C 30.84375 134.351562 0.785156 104.292969 0.785156 67.210938 C 0.785156 30.132812 30.84375 0.0742188 67.925781 0.0742188 " fill-opacity="1" fill-rule="nonzero"/></g><path fill="#ffffff" d="M 118.316406 72.269531 C 121.777344 75.730469 121.777344 81.339844 118.316406 84.796875 C 114.855469 88.257812 109.25 88.257812 105.789062 84.796875 C 102.328125 81.339844 102.328125 75.730469 105.789062 72.269531 C 109.25 68.808594 114.855469 68.808594 118.316406 72.269531 " fill-opacity="1" fill-rule="nonzero"/></g></g></g></g></g></svg>